# xmcd
#
# Track frame offsets: 
#        150
#        22976
#        72539
#        94884
#        116983
#        142165
#        162673
#        183176
#        205025
#        249472
#
# Disc length: 3669 seconds
#
# Revision: 2
# Processed by: cddbd v1.5.2PL0 Copyright (c) Steve Scherf et al.
# Submitted via: ExactAudioCopy v1.3
#
DISCID=940e530a
DTITLE=The Eric Steckel Band - Live At Havana
DYEAR=2006
DGENRE=Blues Rock
TTITLE0=San-Ho-Zay
TTITLE1=Radio Blues
TTITLE2=Espirita
TTITLE3=Me And My Guitar
TTITLE4=Philips Highway
TTITLE5=Deep Fried
TTITLE6=Jaywalkin
TTITLE7=Hey Sister
TTITLE8=Little Wing
TTITLE9=All Your Love
EXTD=
EXTT0=
EXTT1=
EXTT2=
EXTT3=
EXTT4=
EXTT5=
EXTT6=
EXTT7=
EXTT8=
EXTT9=
PLAYORDER=
